# xmcd CD database file
#
# Track frame offsets:
#	150
#	19502
#	37279
#	55281
#	69911
#	86127
#	103335
#	118079
#	135232
#	151842
#	168386
#	184414
#	204858
#
# Disc length: 2931 seconds
#
# Revision: 0
# Processed by: cddbd v1.4PL0 Copyright (c) Steve Scherf et al.
# Submitted via: CDex 1.50
#
DISCID=af0b710d
DTITLE=Kennedy and Gustavo - Kennedy and Gustavo
DYEAR=2003
DGENRE=Country
TTITLE0=A Paixão
TTITLE1=Queo Te Namorar
TTITLE2=Paraíso ( Heaven )
TTITLE3=Um Tiquim
TTITLE4=A Vida Ficou Pra Depois
TTITLE5=Se Você Não Voltar
TTITLE6=Maria Roberval
TTITLE7=Longe De Você
TTITLE8=Oceano De Lembranças
TTITLE9=Ela Mexeu Comigo
TTITLE10=Tristeza Em Meu Olhar
TTITLE11=Coração Sem Juízo
TTITLE12=Vem Ni Mim Que Eu Sou Facim
EXTD=YEAR: 2003
EXTT0=
EXTT1=
EXTT2=
EXTT3=
EXTT4=
EXTT5=
EXTT6=
EXTT7=
EXTT8=
EXTT9=
EXTT10=
EXTT11=
EXTT12=
PLAYORDER=
